<svg xmlns="http://www.w3.org/2000/svg" version="1.1" viewBox="-5.0 -10.0 110.0 135.0">
 <path d="m42.699 52.715c0 1.1289-0.45703 2.1523-1.1992 2.8906-0.73828 0.73828-1.7617 1.1992-2.8945 1.1992-1.1289 0-2.1523-0.45703-2.8945-1.1992-0.73828-0.73828-1.1992-1.7617-1.1992-2.8906s0.45703-2.1523 1.1992-2.8945c0.73828-0.73828 1.7617-1.1992 2.8945-1.1992 1.1289 0 2.1523 0.45703 2.8945 1.1992 0.74219 0.73828 1.1992 1.7617 1.1992 2.8945zm24.73-2.8945c-0.73828-0.73828-1.7617-1.1992-2.8945-1.1992-1.1289 0-2.1523 0.45703-2.8945 1.1992-0.73828 0.73828-1.1992 1.7617-1.1992 2.8945 0 1.1289 0.45703 2.1523 1.1992 2.8906 0.73828 0.73828 1.7617 1.1992 2.8945 1.1992 1.1289 0 2.1523-0.45703 2.8945-1.1992 0.73828-0.73828 1.1992-1.7617 1.1992-2.8906-0.003906-1.1328-0.46094-2.1562-1.1992-2.8945zm-26.484-20.992v11.035c0 0.16406 0.066407 0.31641 0.17578 0.42578 0.10938 0.10547 0.25781 0.17578 0.42578 0.17578h16.906c0.16406 0 0.31641-0.066406 0.42578-0.17578 0.10938-0.10937 0.17578-0.26172 0.17578-0.42578l-0.003907-11.035zm20.246 0h14.094c1.2617 0.10156 2.4414 0.59766 3.3828 1.3711 0.9375 0.77344 1.6406 1.832 1.9492 3.0625l6.5117 25.875c0.64453 2.5664 0.22266 5.168-1.0039 7.293v-0.003907c-1.207 2.0898-3.1875 3.7227-5.6875 4.4062-0.035156 0.007813-0.070312 0.019531-0.10547 0.027344-2.5078 0.65625-5.0703 0.23047-7.1758-0.98828l-0.054688-0.027344c-2.082-1.2188-3.7109-3.2148-4.3906-5.6914-0.007813-0.039063-0.019532-0.074219-0.03125-0.11328l-1.5195-5.6719c0.66797-0.3125 1.2695-0.73438 1.7852-1.2461 1.1289-1.1289 1.8242-2.6836 1.8242-4.4023 0-1.7227-0.69922-3.2773-1.8242-4.4023-1.1289-1.1289-2.6836-1.8242-4.4023-1.8242s-3.2773 0.69531-4.4023 1.8242c-0.88672 0.88672-1.5117 2.043-1.7344 3.3359h-13.648c-0.22266-1.293-0.84375-2.4453-1.7344-3.3359-1.1289-1.1289-2.6836-1.8242-4.4023-1.8242s-3.2773 0.69531-4.4023 1.8242c-1.1289 1.1289-1.8242 2.6836-1.8242 4.4023 0 1.2812 0.38672 2.4727 1.0508 3.4609l-2.1367 7.9219c-0.67578 2.5234-2.3359 4.5508-4.4609 5.7734l-0.050781 0.03125c-2.1133 1.2031-4.6758 1.6133-7.1797 0.94141-2.5234-0.67578-4.5234-2.3164-5.7383-4.4219-1.2266-2.125-1.6523-4.7266-1.0078-7.2891l6.5117-25.875c0.30859-1.2305 1.0117-2.2852 1.9492-3.0625 0.94141-0.77734 2.1211-1.2734 3.3828-1.3711h14.094v11.035c0 0.75 0.30859 1.4336 0.80469 1.9297l0.003907 0.003906c0.49609 0.49609 1.1797 0.80469 1.9336 0.80469h16.906c0.75 0 1.4336-0.30859 1.9297-0.80469l0.003906-0.003906c0.49609-0.49609 0.80469-1.1797 0.80469-1.9297zm-40.246 7.8672v3.9297h5.5781v5.5781h3.9297v-5.5781h5.5781v-3.9297h-5.5781v-5.5781h-3.9297v5.5781zm50.562-5.5781c-1.3164 0-2.3828 1.0664-2.3828 2.3828s1.0664 2.3828 2.3828 2.3828c1.3164 0 2.3828-1.0664 2.3828-2.3828s-1.0664-2.3828-2.3828-2.3828zm-2.7773 7.543c0-1.3164-1.0664-2.3828-2.3828-2.3828s-2.3828 1.0664-2.3828 2.3828 1.0664 2.3828 2.3828 2.3828 2.3828-1.0664 2.3828-2.3828zm2.7773 2.7773c-1.3164 0-2.3828 1.0664-2.3828 2.3828 0 1.3164 1.0664 2.3828 2.3828 2.3828 1.3164 0 2.3828-1.0664 2.3828-2.3828 0-1.3164-1.0664-2.3828-2.3828-2.3828zm5.1602-5.1602c-1.3164 0-2.3828 1.0664-2.3828 2.3828s1.0664 2.3828 2.3828 2.3828c1.3164 0 2.3828-1.0664 2.3828-2.3828 0.003907-1.3164-1.0664-2.3828-2.3828-2.3828zm-23.816 12.273c0.58984 0 1.0703-0.48047 1.0703-1.0703 0-0.58984-0.48047-1.0703-1.0703-1.0703h-5.6992c-0.58984 0-1.0703 0.48047-1.0703 1.0703 0 0.58984 0.48047 1.0703 1.0703 1.0703z" fill-rule="evenodd"/>
</svg>