<svg xmlns="http://www.w3.org/2000/svg" version="1.1" viewBox="-5.0 -10.0 110.0 135.0">
 <path d="m30 10c-2.2109 0-4 1.7891-4 4v30c0 2.2109 1.7891 4 4 4h40c2.2109 0 4-1.7891 4-4v-30c0-2.2109-1.7891-4-4-4zm48 5v28h2v-28zm6 0v28c0 1.6562 1.3438 3 3 3s3-1.3438 3-3v-28c0-1.6562-1.3438-3-3-3s-3 1.3438-3 3zm-30 37h-8v24h8zm1 28h-10c-0.55078 0-1 0.44922-1 1v3c0 3.3125 2.6875 6 6 6s6-2.6875 6-6v-3c0-0.55078-0.44922-1-1-1zm-33-37v-28h-2v28zm-6 0v-28c0-1.6562-1.3438-3-3-3s-3 1.3438-3 3v28c0 1.6562 1.3438 3 3 3s3-1.3438 3-3z" fill-rule="evenodd"/>
</svg>